<?xml version="1.0" standalone="no"?>
<!DOCTYPE svg PUBLIC "-//W3C//DTD SVG 20010904//EN"
 "http://www.w3.org/TR/2001/REC-SVG-20010904/DTD/svg10.dtd">
<svg version="1.0" xmlns="http://www.w3.org/2000/svg"
 width="1120.000000pt" height="1120.000000pt" viewBox="0 0 1120.000000 1120.000000"
 preserveAspectRatio="xMidYMid meet">
<metadata>
Created by potrace 1.11, written by Peter Selinger 2001-2013
</metadata>
<g transform="translate(0.000000,1120.000000) scale(0.100000,-0.100000)"
fill="#000000" stroke="none">
<path d="M5309 11196 c-2 -2 -58 -7 -124 -11 -66 -3 -122 -8 -125 -10 -3 -2
-39 -6 -80 -9 -41 -3 -84 -7 -95 -10 -11 -2 -45 -7 -75 -11 -30 -4 -62 -9 -70
-10 -48 -9 -108 -18 -125 -21 -79 -10 -414 -87 -540 -124 -38 -12 -77 -23 -86
-25 -37 -8 -331 -110 -424 -147 -226 -90 -516 -227 -686 -325 -48 -28 -93 -53
-100 -57 -8 -3 -27 -15 -44 -26 -16 -11 -37 -23 -45 -27 -28 -13 -315 -205
-410 -276 -338 -250 -681 -572 -964 -907 -375 -444 -710 -1007 -924 -1555 -78
-200 -196 -576 -227 -724 -2 -9 -10 -45 -19 -81 -21 -91 -55 -268 -71 -375 -3
-16 -7 -48 -11 -70 -11 -70 -13 -88 -19 -159 -3 -39 -8 -72 -10 -75 -10 -18
-20 -285 -20 -551 0 -262 6 -433 19 -555 2 -16 7 -59 10 -95 4 -36 11 -90 16
-120 5 -30 11 -73 14 -95 3 -22 12 -76 20 -120 9 -44 18 -96 21 -115 3 -19 22
-102 41 -185 105 -450 254 -856 464 -1270 112 -218 317 -564 342 -573 4 -2 8
-8 8 -13 0 -31 273 -384 451 -584 266 -299 602 -606 878 -803 159 -112 511
-342 526 -342 2 0 36 -19 77 -42 490 -278 1132 -506 1713 -608 33 -5 69 -12
80 -14 19 -3 84 -13 155 -22 19 -3 46 -7 60 -9 14 -3 57 -7 95 -11 39 -3 84
-8 100 -10 192 -24 763 -24 1001 1 21 2 66 6 99 10 33 3 74 7 90 10 265 39
321 48 325 50 3 2 26 6 50 10 36 5 218 45 280 61 8 2 35 8 60 14 226 54 630
195 843 294 43 20 80 36 83 36 6 0 289 142 339 170 198 111 232 131 403 244
172 112 467 330 522 386 3 3 23 20 45 39 197 167 453 425 638 643 126 148 377
486 377 507 0 5 3 11 8 13 9 4 132 195 132 205 0 3 6 14 14 22 22 26 149 260
218 401 132 273 231 523 319 805 22 72 42 137 44 145 2 8 22 87 44 175 22 88
42 174 45 190 2 17 9 55 16 85 6 30 13 70 16 89 3 18 7 42 9 51 2 10 7 40 11
67 3 26 8 55 9 64 2 9 8 61 15 115 6 55 13 113 15 129 26 195 27 928 1 1085
-3 14 -7 56 -11 93 -3 37 -8 76 -9 85 -3 17 -13 87 -22 152 -3 19 -7 46 -10
60 -2 14 -7 39 -9 55 -20 114 -89 427 -99 443 -3 5 -8 23 -11 40 -5 32 -64
232 -90 307 -58 168 -130 356 -166 431 -10 22 -19 44 -19 48 0 13 -178 371
-237 476 -33 58 -89 152 -124 208 -35 57 -69 111 -74 120 -29 48 -192 279
-242 342 -204 260 -288 355 -503 570 -243 242 -383 360 -715 606 -137 101
-448 290 -655 398 -80 42 -152 79 -160 82 -8 4 -49 22 -90 41 -97 46 -296 128
-385 159 -187 67 -401 135 -485 154 -19 5 -80 20 -135 34 -99 24 -278 62 -345
72 -19 3 -42 7 -50 9 -15 5 -23 6 -165 25 -124 17 -135 18 -220 25 -44 4 -91
9 -105 12 -28 6 -725 14 -731 9z"/>
</g>
</svg>
